# xmcd
#
# Track frame offsets: 
#        150
#        23223
#        45473
#        57231
#        75187
#        93066
#        116552
#        134394
#        151788
#        164266
#
# Disc length: 2490 seconds
#
# Revision: 0
# Processed by: cddbd v1.5.2PL0 Copyright (c) Steve Scherf et al.
# Submitted via: ExactAudioCopy v1.1
#
DISCID=6809b80a
DTITLE=Bella Collins - Late and Blue
DYEAR=2016
DGENRE=
TTITLE0=Follow Me
TTITLE1=Hold On
TTITLE2=On My Way
TTITLE3=Still In Love
TTITLE4=Part Time Lover
TTITLE5=Show Me
TTITLE6=This Ain't My Road
TTITLE7=Who Are You Lovin'
TTITLE8=I Know Better
TTITLE9=Take My Hand
EXTD=
EXTT0=
EXTT1=
EXTT2=
EXTT3=
EXTT4=
EXTT5=
EXTT6=
EXTT7=
EXTT8=
EXTT9=
PLAYORDER=
